<?xml version="1.0" encoding="utf-8"?>
<!-- Generator: Adobe Illustrator 19.0.0, SVG Export Plug-In . SVG Version: 6.00 Build 0)  -->
<svg version="1.1" id="layer" xmlns="http://www.w3.org/2000/svg" xmlns:xlink="http://www.w3.org/1999/xlink" x="0px" y="0px"
	 viewBox="-153 -46 652 652" style="enable-background:new -153 -46 652 652;" xml:space="preserve">
<style type="text/css">
	.st0{fill:#1B1322;}
</style>
<path class="st0" d="M178.5,218.7h24.6v25.7h30.2v20.9h-30.2v35.2c0,5.7,1,9.1,3,11.6c2.5,2.9,6.4,4.6,12.5,4.6c3.6,0,8.3-0.6,10-1
	l3.8,21c-3.2,1.1-10.6,1.9-15.3,1.9c-14.7,0-25.5-5-31.7-13.3c-4.7-6.3-6.8-14.5-6.8-27.6V218.7z M236.8,290.7
	c0-26.7,21-48.2,48.7-48.2c27.8,0,48.7,21.5,48.7,48.2c0,26.7-21,48-48.7,48C257.8,338.7,236.8,317.4,236.8,290.7z M261.3,290.7
	c0,13.9,9.8,25.1,24.2,25.1c14.4,0,24.2-11.2,24.2-25.1c0-13.9-9.8-25.3-24.2-25.3C271.2,265.4,261.3,276.8,261.3,290.7z
	 M22.3,242.5c-27.8,0-48.7,21.5-48.7,48.2c0,26.7,21,48,48.7,48c27.8,0,48.7-21.3,48.7-48C71.1,264.1,50.1,242.5,22.3,242.5z
	 M22.3,315.9c-14.4,0-24.2-11.2-24.2-25.1c0-13.9,9.8-25.3,24.2-25.3c14.4,0,24.2,11.4,24.2,25.3C46.5,304.6,36.7,315.9,22.3,315.9z
	 M123.3,320.4c-11.3,0-19-5.6-19.8-13.8v0H79.5c0.9,20,18.5,32.2,44,32.2c24.8,0,41.9-11.8,41.9-30.4c0-21.1-17.6-26-38.6-28.4
	l-1.7-0.2c-12.1-1.3-19.3-2.1-19.3-8.7c0-6.2,6.5-10,16-10c10.4,0,17.4,5.1,18.2,12H164c-1.2-19.1-18.1-30.2-42.9-30.4
	c-23.5,0-39.5,12.2-39.5,30.8c0,19.3,16.7,24,38.1,26.8l0.4,0c14.5,1.8,20.9,2.6,20.9,10C140.8,316.9,133.8,320.4,123.3,320.4z
	 M-37.7,286.7v50.1h-25v-46c0-15.6-5.8-25.3-18.4-25.3c-12.9,0-20.4,9.3-20.4,25.3v46h-25v-92.3h24l0.1,11.5
	c5.8-7.2,14.2-13.4,28.2-13.4C-55.6,242.5-37.7,253.1-37.7,286.7z M425.6,316.8c0,13.4,10.8,24.3,23.9,24.3
	c13.2,0,24-10.9,23.9-24.3v-82c0-8.7-7-15.7-15.5-15.7h-80.8c-13.2,0-24,10.9-24,24.3c0,13.4,10.8,24.3,24,24.3h15.2l-26.9,27.2
	c-2.9,3-4.6,6.9-4.6,11.1c0,4.2,1.6,8.2,4.6,11.1l11.9,12c2.9,3,6.8,4.6,11,4.6c4.1,0,8.1-1.6,11-4.6l26.3-26.7V316.8z M449.6,330
	c-7.1,0-12.9-5.9-12.9-13.1v-41.2l-45.1,45.7c-0.9,0.9-2,1.3-3.2,1.3c-1.2,0-2.3-0.5-3.2-1.3l-11.9-12.1c-1.8-1.8-1.8-4.7,0-6.5
	l45.6-46.3h-41.7c-7.1,0-12.9-5.9-12.9-13.1c0-7.2,5.8-13.1,12.9-13.1H458c2.5,0,4.5,2.1,4.5,4.6v82
	C462.5,324.1,456.7,330,449.6,330z"/>
</svg>
