<?xml version="1.0" encoding="utf-8"?>
<!-- Generator: Adobe Illustrator 24.0.2, SVG Export Plug-In . SVG Version: 6.00 Build 0)  -->
<svg version="1.1" id="Capa_1" xmlns="http://www.w3.org/2000/svg" xmlns:xlink="http://www.w3.org/1999/xlink" x="0px" y="0px"
	 viewBox="0 0 247.99 174.35" style="enable-background:new 0 0 247.99 174.35;" xml:space="preserve">
<style type="text/css">
	.st0{fill:#FFFFFF;}
</style>
<g>
	<path class="st0" d="M110.7,30.21c1.3-0.75,2.65-1.31,4.03-1.69c1.4-0.38,2.83-0.58,4.26-0.58s2.86,0.19,4.26,0.57
		c1.37,0.38,2.72,0.94,4.03,1.69l3.89,2.23l15.98-9.17L123.03,9.42c-0.66-0.38-1.34-0.66-2.01-0.85c-0.67-0.18-1.35-0.28-2.03-0.27
		c-0.68,0-1.37,0.1-2.05,0.29c-0.7,0.2-1.39,0.49-2.05,0.87L66.53,37.22l48.44,27.81c0.65,0.37,1.32,0.65,2,0.84
		c0.67,0.19,1.35,0.28,2.03,0.27c0.68,0,1.37-0.1,2.05-0.29c0.7-0.2,1.39-0.49,2.05-0.86l60.89-34.96v9.59l-56.72,32.56
		c-1.3,0.75-2.65,1.31-4.02,1.69c-1.4,0.39-2.82,0.58-4.23,0.59c-1.42,0-2.83-0.18-4.23-0.56c-1.36-0.37-2.71-0.93-4.01-1.67
		l-48.44-27.8v18.34l52.62,30.2c0.66,0.38,1.33,0.66,2.01,0.85c0.67,0.18,1.35,0.28,2.03,0.27c0.68,0,1.37-0.1,2.05-0.29
		c0.7-0.2,1.39-0.48,2.05-0.86l60.89-34.96v9.59l-56.72,32.55c-1.28,0.74-2.64,1.31-4.02,1.69c-1.4,0.39-2.82,0.58-4.23,0.59
		c-1.42,0-2.83-0.18-4.23-0.56c-1.37-0.37-2.71-0.93-4.01-1.67L54,67.57V34.84l56.73-32.56c1.3-0.75,2.65-1.31,4.02-1.69
		c1.4-0.38,2.82-0.58,4.23-0.59c1.42,0,2.84,0.18,4.23,0.56c1.37,0.37,2.72,0.93,4.01,1.67l36.63,21.04l-32.68,18.76l-8.07-4.63
		c-0.65-0.37-1.33-0.65-2.02-0.84s-1.39-0.28-2.08-0.28c-0.7,0-1.4,0.1-2.08,0.28c-0.68,0.19-1.35,0.47-2.02,0.85l-8.07,4.63
		l-8.35-4.8L110.7,30.21L110.7,30.21z"/>
	<path class="st0" d="M20.18,142.16c-1.33-1.13-2.68-1.88-4.14-2.34c-1.53-0.49-3.2-0.68-5.1-0.68c-2.49,0-5.41,0.62-7.49,2.15
		c-1.59,1.18-2.68,2.9-2.68,5.3c0,2.33,1,3.96,2.5,5.09c1.99,1.5,4.88,2.12,7.48,2.31c1.79,0.11,3.06,0.34,3.88,0.78
		c0.89,0.47,1.28,1.15,1.28,2.11v0.05c-0.02,0.97-0.59,1.78-1.47,2.34c-0.84,0.54-1.97,0.85-3.14,0.85h-0.13
		c-1.47-0.03-3.27-0.44-4.91-1.11c-1.4-0.57-2.69-1.33-3.57-2.2L0,160.72c1.73,1.75,3.52,2.79,5.34,3.39
		c1.88,0.62,3.81,0.78,5.74,0.78c3.29,0,5.79-0.82,7.52-2.14c1.89-1.45,2.85-3.5,2.85-5.71c0-3.16-1.42-5-3.4-6.07
		c-2.02-1.1-4.62-1.43-6.93-1.58c-1.62-0.11-2.82-0.4-3.62-0.87c-0.85-0.51-1.26-1.21-1.26-2.11c0-0.89,0.45-1.58,1.32-2.05
		c0.81-0.44,1.98-0.67,3.47-0.67c1.2,0,2.32,0.14,3.37,0.5c0.97,0.33,1.87,0.84,2.72,1.59L20.18,142.16L20.18,142.16z
		 M238.87,144.74v-4.89h-5.97v24.18h5.97v-10.56c0-0.21,0.01-0.42,0.02-0.63c0.14-2.22,1.01-4.09,2.48-5.41s3.54-2.08,6.08-2.08
		c0.18,0,0.36,0,0.54,0.01v-5.76c-1.92,0.06-3.62,0.52-5.05,1.37c-1.49,0.88-2.69,2.19-3.57,3.89L238.87,144.74L238.87,144.74z
		 M226.8,153.85c0.06-0.71,0.09-1.39,0.09-2.06c0-3.91-1.03-6.92-2.88-9.01c-1.84-2.09-4.5-3.3-7.74-3.6
		c-0.54-0.05-1.11-0.08-1.7-0.08c-3.89,0-7.08,1.29-9.3,3.49c-2.28,2.25-3.56,5.45-3.56,9.18c0,3.93,1.26,7.19,3.59,9.45
		c2.28,2.21,5.58,3.47,9.73,3.47c1.94,0,4.02-0.35,5.92-1.07c1.63-0.62,3.14-1.5,4.33-2.67l-3.53-3.48
		c-0.69,0.63-1.66,1.14-2.72,1.51c-1.28,0.44-2.69,0.69-3.9,0.69c-2.16,0-3.92-0.54-5.21-1.46c-1.38-0.98-2.21-2.39-2.43-4.04
		l-0.04-0.31L226.8,153.85L226.8,153.85z M207.58,148.98c0.46-1.62,1.36-2.85,2.56-3.69c1.27-0.88,2.86-1.32,4.62-1.32
		c1.86,0,3.45,0.44,4.62,1.32c1.13,0.85,1.86,2.09,2.07,3.73l0.04,0.31h-14.01L207.58,148.98L207.58,148.98z M193.28,139.85
		l-4.44,10.66l-2.55,6.81l-0.51-0.01l-2.36-6.97l-3.7-10.5h-6.52l9.77,24.05l-4.5,10.46h6.13l14.86-34.51L193.28,139.85
		L193.28,139.85L193.28,139.85z M162.07,143.12c-0.67-1.17-1.76-2.13-3.08-2.8c-1.35-0.69-2.94-1.07-4.56-1.07h-0.12
		c-3.49,0-6.61,1.08-8.85,3.18c-2.24,2.1-3.62,5.24-3.65,9.35v0.27c0.03,4.19,1.35,7.37,3.54,9.51c2.19,2.13,5.27,3.22,8.8,3.22
		h0.12c1.47-0.03,3.26-0.45,4.81-1.29c1.27-0.69,2.37-1.66,2.98-2.92l0.52,0.1l0.28,3.36h5.24v-24.18h-5.34l-0.18,3.15
		L162.07,143.12L162.07,143.12z M154.98,144.17c3.6,0,5.9,2.02,6.91,4.6c0.39,1,0.59,2.08,0.59,3.17c0,1.08-0.2,2.17-0.59,3.17
		c-1.01,2.58-3.31,4.6-6.91,4.6c-2.17,0-4.11-0.77-5.5-2.2c-1.3-1.34-2.1-3.24-2.1-5.6s0.79-4.25,2.09-5.57
		C150.86,144.93,152.81,144.17,154.98,144.17L154.98,144.17z M131.68,129.52v34.51h5.52v-34.51H131.68L131.68,129.52z
		 M118.13,142.16c-1.33-1.13-2.68-1.88-4.14-2.34c-1.54-0.49-3.2-0.68-5.11-0.68c-2.49,0-5.41,0.62-7.48,2.15
		c-1.59,1.17-2.67,2.9-2.67,5.3c0,2.34,1,3.97,2.5,5.09c2,1.5,4.88,2.12,7.48,2.31c1.79,0.1,3.05,0.34,3.88,0.77
		c0.89,0.47,1.29,1.15,1.29,2.11v0.05c-0.02,0.97-0.59,1.78-1.46,2.33c-0.84,0.54-1.96,0.85-3.13,0.85h-0.14
		c-1.47-0.03-3.27-0.44-4.91-1.1c-1.4-0.57-2.7-1.33-3.58-2.2l-2.69,3.9c1.72,1.75,3.51,2.79,5.34,3.39
		c1.88,0.62,3.81,0.78,5.74,0.78c3.29,0,5.79-0.82,7.51-2.14c1.89-1.45,2.85-3.5,2.85-5.71c0-3.16-1.42-5-3.4-6.07
		c-2.02-1.1-4.62-1.43-6.93-1.58c-1.62-0.1-2.82-0.39-3.61-0.86c-0.85-0.51-1.26-1.21-1.26-2.11c0-0.89,0.45-1.58,1.32-2.06
		c0.8-0.44,1.97-0.67,3.47-0.67c1.21,0,2.33,0.14,3.37,0.5c0.97,0.33,1.87,0.84,2.72,1.59L118.13,142.16L118.13,142.16z
		 M94.54,153.85c0.06-0.71,0.09-1.39,0.09-2.06c0-3.91-1.04-6.92-2.88-9.02s-4.5-3.3-7.74-3.6c-0.54-0.05-1.11-0.08-1.7-0.08
		c-3.89,0-7.08,1.29-9.3,3.49c-2.28,2.25-3.56,5.45-3.56,9.18c0,3.93,1.26,7.19,3.59,9.45c2.28,2.21,5.58,3.47,9.73,3.47
		c1.94,0,4.02-0.35,5.92-1.07c1.63-0.62,3.14-1.5,4.33-2.67l-3.53-3.48c-0.69,0.63-1.66,1.14-2.72,1.51
		c-1.27,0.44-2.69,0.69-3.9,0.69c-2.16,0-3.92-0.54-5.21-1.46c-1.38-0.98-2.21-2.39-2.43-4.04l-0.04-0.31H94.54L94.54,153.85z
		 M75.32,148.98c0.46-1.62,1.36-2.85,2.56-3.69c1.27-0.88,2.86-1.32,4.62-1.32c1.86,0,3.45,0.44,4.62,1.32
		c1.13,0.85,1.86,2.09,2.07,3.73l0.04,0.31H75.22L75.32,148.98L75.32,148.98z M57.85,129.52v34.51h5.53v-34.51H57.85L57.85,129.52z
		 M45.45,143.12c-0.67-1.17-1.76-2.13-3.08-2.8c-1.35-0.69-2.94-1.07-4.56-1.07h-0.13c-3.49,0-6.6,1.08-8.84,3.18
		s-3.62,5.23-3.65,9.35v0.27c0.03,4.19,1.34,7.38,3.54,9.52c2.19,2.13,5.27,3.22,8.81,3.22h0.11c1.47-0.03,3.27-0.45,4.81-1.29
		c1.27-0.69,2.36-1.66,2.97-2.92l0.52,0.1l0.28,3.36h5.25v-24.18h-5.34l-0.18,3.15L45.45,143.12L45.45,143.12z M38.37,144.17
		c3.6,0,5.9,2.02,6.91,4.6c0.39,1,0.59,2.08,0.59,3.16s-0.2,2.17-0.59,3.16c-1.01,2.58-3.31,4.6-6.91,4.6c-2.17,0-4.12-0.77-5.5-2.2
		c-1.3-1.34-2.1-3.24-2.1-5.6s0.79-4.24,2.09-5.57C34.24,144.93,36.2,144.17,38.37,144.17L38.37,144.17z"/>
</g>
</svg>
