<?xml version="1.0" encoding="UTF-8" standalone="no"?>
<!DOCTYPE svg PUBLIC "-//W3C//DTD SVG 1.1//EN" "http://www.w3.org/Graphics/SVG/1.1/DTD/svg11.dtd">
<svg width="100%" height="100%" viewBox="0 0 2250 380" version="1.1" xmlns="http://www.w3.org/2000/svg" xmlns:xlink="http://www.w3.org/1999/xlink" xml:space="preserve" xmlns:serif="http://www.serif.com/" style="fill-rule:evenodd;clip-rule:evenodd;stroke-linejoin:round;stroke-miterlimit:2;">
    <g transform="matrix(4.16667,0,0,4.16667,0,0)">
        <path d="M328.652,68.493C330.352,69.806 332.824,70.579 335.836,70.579C345.647,70.579 352.444,56.674 352.444,47.172C352.444,42.769 350.745,37.826 345.26,37.826C340.008,37.826 333.132,44.546 331.047,55.747L328.652,68.493ZM321.7,88.689L329.116,48.825C330.043,43.958 330.738,39.689 331.201,35.689L334.368,35.689L333.21,43.689L333.364,43.689C336.686,38.689 341.321,35.157 346.265,35.157C353.294,35.157 355.92,40.972 355.92,47.074C355.92,59.588 347.346,73.979 335.527,73.979C331.897,73.979 329.502,72.689 328.111,72.689L327.957,72.689L325.022,88.689L321.7,88.689Z" style="fill:rgb(134,134,134);fill-rule:nonzero;"/>
        <path d="M386.048,38.367C385.198,38.057 383.885,37.826 381.567,37.826C370.907,37.826 362.564,49.721 362.487,61.386C362.41,66.253 363.8,70.579 368.821,70.579C374.847,70.579 381.645,61.541 383.421,51.961L386.048,38.367ZM381.104,73.689C381.026,70.689 381.49,67.689 382.031,63.689L381.876,63.689C377.627,71.689 372.916,73.97 368.049,73.97C362.41,73.97 359.011,69.107 359.011,62.464C359.011,49.795 368.049,35.004 382.417,35.004C385.043,35.004 387.979,35.333 389.91,36.028L385.97,56.404C384.657,63.356 384.194,69.689 384.348,73.689L381.104,73.689Z" style="fill:rgb(134,134,134);fill-rule:nonzero;"/>
        <path d="M392.305,73.689L397.017,48.277C397.944,43.565 398.485,39.689 398.794,35.689L401.807,35.689C401.575,38.689 401.266,40.689 400.802,44.689L400.957,44.689C403.197,39.689 406.905,35.348 411.54,35.348C412.003,35.348 412.544,35.196 412.93,35.196L412.235,38.635C411.926,38.558 411.54,38.501 410.999,38.501C406.132,38.501 400.725,46.284 399.18,54.395L395.627,73.689L392.305,73.689Z" style="fill:rgb(134,134,134);fill-rule:nonzero;"/>
        <path d="M428.147,27.564L426.525,35.689L435.254,35.689L434.636,38.689L425.907,38.689L421.813,60.698C421.349,63.169 421.04,65.059 421.04,67.067C421.04,69.23 422.045,70.522 424.362,70.522C425.598,70.522 426.37,70.435 427.066,70.202L427.297,72.901C426.293,73.21 424.98,73.44 423.667,73.44C419.263,73.44 417.564,70.503 417.564,67.413C417.564,65.404 417.796,63.557 418.414,60.698L422.585,38.689L417.255,38.689L417.796,35.689L423.203,35.689L424.439,29.039L428.147,27.564Z" style="fill:rgb(134,134,134);fill-rule:nonzero;"/>
        <path d="M434.79,73.689L439.734,47.041C440.584,42.639 441.047,38.689 441.356,35.689L444.523,35.689L443.442,43.689L443.596,43.689C446.841,38.689 451.476,35.118 456.574,35.118C460.204,35.118 464.84,37.322 464.84,44.351C464.84,46.205 464.531,48.475 464.144,50.484L459.896,73.689L456.574,73.689L460.9,50.427C461.209,48.728 461.441,46.714 461.441,44.783C461.441,40.921 459.896,38.021 455.338,38.021C450.394,38.021 443.365,44.615 441.742,53.576L438.112,73.689L434.79,73.689Z" style="fill:rgb(134,134,134);fill-rule:nonzero;"/>
        <path d="M493.246,43.079C493.246,39.679 490.862,37.826 487.385,37.826C481.669,37.826 476.604,44.005 474.287,52.04C483.942,52.117 493.246,50.495 493.246,43.156L493.246,43.079ZM491.644,70.656C489.713,71.969 486.16,73.437 481.525,73.437C472.873,73.437 469.86,66.639 469.86,59.532C469.86,48.872 477.353,34.89 487.936,34.89C494.039,34.89 496.588,38.83 496.588,43.002C496.588,52.425 485.774,55.051 473.645,54.974C473.259,56.674 473.182,61.541 473.954,64.245C475.268,68.416 478.126,70.501 482.066,70.501C486.16,70.501 488.941,69.034 490.64,68.03L491.644,70.656Z" style="fill:rgb(134,134,134);fill-rule:nonzero;"/>
        <path d="M498.829,73.689L503.541,48.277C504.468,43.565 505.009,39.689 505.318,35.689L508.33,35.689C508.098,38.689 507.789,40.689 507.326,44.689L507.481,44.689C509.721,39.689 513.429,35.348 518.063,35.348C518.526,35.348 519.068,35.196 519.453,35.196L518.758,38.635C518.45,38.558 518.063,38.501 517.523,38.501C512.656,38.501 507.249,46.284 505.704,54.395L502.151,73.689L498.829,73.689Z" style="fill:rgb(134,134,134);fill-rule:nonzero;"/>
        <path d="M518.294,68.416C519.607,69.42 522.08,70.501 524.784,70.501C529.651,70.501 532.972,67.025 532.972,62.777C532.972,59.069 531.427,56.829 527.951,54.588C524.242,52.194 522.235,48.872 522.235,45.396C522.235,39.602 526.947,34.89 533.513,34.89C536.062,34.89 538.534,35.663 539.616,36.512L538.379,39.371C537.221,38.675 535.289,37.826 533.127,37.826C528.646,37.826 525.634,40.993 525.634,44.778C525.634,48.254 527.642,50.185 530.655,52.271C534.208,54.666 536.371,58.064 536.371,61.849C536.371,69.342 530.887,73.437 524.475,73.437C521.153,73.437 518.218,72.201 516.982,71.197L518.294,68.416Z" style="fill:rgb(134,134,134);fill-rule:nonzero;"/>
        <path d="M28.897,30.149C28.825,30.149 28.752,30.144 28.677,30.133C27.829,30.014 27.12,29.248 27.093,28.421C27.067,27.612 26.574,8.558 37.748,4.223C40.568,3.129 43.13,3.375 45.361,4.955C48.043,6.853 49.999,10.602 51.175,16.097C52.005,19.982 52.14,23.328 52.146,23.469C52.177,24.296 51.515,24.874 50.667,24.76C49.819,24.645 49.107,23.881 49.075,23.054C48.942,19.602 47.747,10.046 43.872,7.306C42.631,6.428 41.13,6.351 39.282,7.067C29.703,10.782 30.158,28.672 30.164,28.852C30.188,29.606 29.636,30.149 28.897,30.149Z" style="fill:rgb(154,152,151);fill-rule:nonzero;"/>
        <path d="M52.756,11.402L9.539,24.784C9.539,24.784 7.685,25.311 7.249,25.833C6.772,26.405 6.68,27.951 6.68,27.951L0,79.478L50.15,88.874L54.011,11.358C53.458,11.25 52.893,11.369 52.756,11.402Z" style="fill:rgb(154,152,151);fill-rule:nonzero;"/>
        <path d="M67.724,18.063C67.724,18.063 67.651,17.666 67.426,17.522C67.202,17.377 66.956,17.349 66.956,17.349L59.878,16.821L54.669,11.646C54.474,11.494 54.245,11.406 54.011,11.361L50.15,88.877L77.323,82.995L67.724,18.063Z" style="fill:rgb(135,134,134);fill-rule:nonzero;"/>
        <path d="M34.906,54.468C34.137,53.433 33.242,52.524 32.297,51.718C31.366,50.924 30.386,50.232 29.428,49.618C28.744,49.192 28.152,48.78 27.649,48.377C27.151,47.977 26.739,47.583 26.415,47.189C26.092,46.797 25.855,46.403 25.703,45.999C25.552,45.596 25.485,45.183 25.503,44.752C25.529,44.17 25.658,43.643 25.879,43.178C26.101,42.71 26.417,42.304 26.815,41.964C27.216,41.623 27.702,41.348 28.261,41.148C28.826,40.947 29.468,40.821 30.176,40.779C30.947,40.734 31.692,40.758 32.401,40.831C33.118,40.905 33.797,41.029 34.428,41.184C35.065,41.34 35.653,41.527 36.18,41.723C36.713,41.92 37.183,42.127 37.581,42.32L40.926,32.353C40.429,32.099 39.825,31.865 39.129,31.669C38.438,31.473 37.659,31.314 36.804,31.205C35.959,31.098 35.043,31.04 34.067,31.044C33.106,31.049 32.09,31.114 31.03,31.253C28.748,31.552 26.686,32.183 24.885,33.083C23.133,33.959 21.614,35.095 20.364,36.443C19.138,37.764 18.162,39.299 17.472,41.009C16.79,42.702 16.382,44.582 16.293,46.622C16.24,47.841 16.363,48.962 16.628,49.996C16.894,51.035 17.305,51.993 17.828,52.877C18.357,53.771 19.001,54.593 19.728,55.354C20.464,56.124 21.286,56.832 22.159,57.483C22.872,58.004 23.473,58.494 23.974,58.97C24.479,59.449 24.879,59.912 25.188,60.374C25.497,60.839 25.711,61.301 25.842,61.779C25.974,62.258 26.021,62.75 25.999,63.274C25.976,63.796 25.864,64.285 25.664,64.719C25.466,65.151 25.181,65.528 24.814,65.826C24.448,66.122 24.002,66.339 23.479,66.457C22.96,66.574 22.366,66.594 21.702,66.496C20.951,66.385 20.192,66.168 19.455,65.886C18.727,65.606 18.019,65.263 17.357,64.894C16.703,64.528 16.092,64.136 15.548,63.753C15.01,63.375 14.537,63.004 14.151,62.678L11.86,70.277C12.239,70.763 12.723,71.249 13.291,71.718C13.866,72.192 14.53,72.651 15.263,73.078C16.006,73.511 16.823,73.911 17.692,74.263C18.575,74.62 19.514,74.926 20.487,75.162C20.504,75.165 20.52,75.169 20.536,75.173C20.553,75.177 20.57,75.181 20.586,75.184C20.602,75.188 20.618,75.192 20.635,75.195C20.651,75.199 20.668,75.202 20.684,75.206C22.759,75.665 24.773,75.776 26.65,75.525C28.583,75.267 30.36,74.624 31.895,73.587C33.464,72.527 34.766,71.065 35.71,69.203C36.666,67.318 37.244,65.045 37.359,62.408C37.429,60.796 37.206,59.332 36.766,58.006C36.33,56.689 35.684,55.516 34.906,54.468Z" style="fill:white;fill-rule:nonzero;"/>
        <path d="M18.361,27.52C18.289,27.52 18.217,27.516 18.144,27.505C17.317,27.386 16.743,26.62 16.862,25.793C16.978,24.984 19.845,5.929 31.783,1.595C34.796,0.501 37.315,0.747 39.268,2.326C41.615,4.225 42.91,7.974 43.116,13.468C43.262,17.353 42.807,20.7 42.787,20.84C42.673,21.668 41.909,22.246 41.082,22.131C40.254,22.017 39.676,21.253 39.791,20.426C40.266,16.974 40.755,7.418 37.364,4.678C36.278,3.8 34.79,3.722 32.816,4.439C22.582,8.154 19.882,26.044 19.857,26.224C19.748,26.977 19.101,27.52 18.361,27.52Z" style="fill:rgb(154,152,151);fill-rule:nonzero;"/>
        <path d="M109,51.047C106.29,49.576 104.896,48.337 104.896,46.634C104.896,44.466 106.832,43.072 109.851,43.072C112.639,43.072 115.039,43.846 116.51,44.543L118.988,36.955C117.285,35.949 114.11,35.174 110.006,35.174C100.637,35.174 94.211,40.517 94.211,48.028C94.211,52.286 97.23,55.538 101.257,57.861C104.509,59.719 105.67,61.036 105.67,62.971C105.67,64.985 104.044,66.61 101.025,66.61C97.695,66.688 94.211,65.294 92.275,64.287L89.642,71.876C91.655,73.269 95.759,74.431 100.173,74.508C109.774,74.585 116.665,69.785 116.665,61.268C116.665,56.7 113.181,53.447 109,51.047Z" style="fill:rgb(152,152,152);fill-rule:nonzero;"/>
        <path d="M147.249,35.097C142.526,35.097 138.81,37.342 135.945,40.749L135.79,40.672L139.894,19.224L129.209,19.224L118.833,73.811L129.519,73.811L133.08,55.151C134.474,48.105 138.113,43.769 141.52,43.769C143.92,43.769 144.85,45.395 144.85,47.718C144.85,49.189 144.694,50.97 144.385,52.441L140.359,73.811L151.044,73.811L155.225,51.744C155.689,49.421 155.999,46.634 155.999,44.775C155.999,38.736 152.824,35.097 147.249,35.097Z" style="fill:rgb(152,152,152);fill-rule:nonzero;"/>
        <path d="M174.892,66.378C171.253,66.378 169.704,63.281 169.704,59.41C169.704,53.293 172.879,43.304 178.686,43.304C182.48,43.304 183.719,46.556 183.719,49.731C183.719,56.313 180.544,66.378 174.892,66.378ZM180.157,35.097C167.304,35.097 158.787,46.711 158.787,59.642C158.787,67.927 163.897,74.585 173.498,74.585C186.119,74.585 194.636,63.281 194.636,50.04C194.636,42.375 190.145,35.097 180.157,35.097Z" style="fill:rgb(152,152,152);fill-rule:nonzero;"/>
        <path d="M211.749,66.533C209.813,66.533 208.497,65.913 207.335,64.985L209.116,54.996C210.355,48.337 213.839,43.924 217.556,43.924C220.808,43.924 221.814,46.943 221.814,49.808C221.814,56.7 217.71,66.533 211.749,66.533ZM221.969,35.097C217.71,35.097 213.53,37.42 210.664,41.446L210.51,41.446L211.129,35.717L201.683,35.717C201.218,39.588 200.367,45.472 199.515,49.886L192.082,88.987L202.767,88.987L205.709,73.192L205.941,73.192C207.18,73.966 209.581,74.585 212.213,74.585C224.757,74.585 232.964,61.732 232.964,48.724C232.964,41.524 229.789,35.097 221.969,35.097Z" style="fill:rgb(152,152,152);fill-rule:nonzero;"/>
        <path d="M248.218,19.766C244.812,19.766 242.102,22.476 242.102,25.96C242.102,29.135 244.114,31.303 247.134,31.303L247.289,31.303C250.618,31.303 253.484,29.058 253.561,25.109C253.561,22.012 251.47,19.766 248.218,19.766Z" style="fill:rgb(152,152,152);fill-rule:nonzero;"/>
        <path d="M233.274,73.811L243.96,73.811L251.238,35.949L240.476,35.949L233.274,73.811Z" style="fill:rgb(152,152,152);fill-rule:nonzero;"/>
        <path d="M278.415,35.871L270.982,35.871L271.369,34.091C271.988,30.451 274.156,27.199 277.718,27.199C279.111,27.199 280.196,27.431 281.124,27.741L283.215,19.379C281.976,18.837 280.041,18.45 277.408,18.45C273.614,18.45 269.82,19.534 266.955,22.012C263.316,25.109 261.613,29.599 260.76,34.091L260.45,35.871L255.496,35.871L253.947,43.924L258.903,43.924L253.25,73.811L263.936,73.811L269.588,43.924L276.944,43.924L278.415,35.871Z" style="fill:rgb(152,152,152);fill-rule:nonzero;"/>
        <path d="M304.121,35.949L297.617,52.905C296.068,57.009 295.294,59.41 294.442,61.965L294.288,61.965C294.133,59.487 293.823,56.777 293.359,52.983L291.655,35.949L280.428,35.949L286.855,70.714C287.009,71.488 286.932,71.953 286.622,72.495C285.383,74.895 283.293,77.218 280.815,78.921C278.802,80.392 276.557,81.321 274.776,81.941L277.718,91C279.886,90.536 284.377,88.755 288.171,85.193C293.049,80.625 297.54,73.579 302.185,63.978L315.271,35.949L304.121,35.949Z" style="fill:rgb(152,152,152);fill-rule:nonzero;"/>
    </g>
</svg>
